<svg xmlns="http://www.w3.org/2000/svg"><symbol id="icon-calendrier" viewBox="0 0 128 142"><path d="m64 120.583-8.854-19.479-19.48-8.854 19.48-8.854L64 63.916l8.854 19.48 19.48 8.854-19.48 8.854L64 120.583Zm-49.583 21.25c-3.896 0-7.232-1.386-10.01-4.157-2.77-2.777-4.157-6.113-4.157-10.009V28.5c0-3.896 1.386-7.23 4.158-10.002 2.777-2.776 6.113-4.165 10.009-4.165H21.5V.167h14.167v14.166h56.666V.167H106.5v14.166h7.083c3.896 0 7.232 1.389 10.009 4.165 2.772 2.772 4.158 6.106 4.158 10.002v99.167c0 3.896-1.386 7.232-4.158 10.009-2.777 2.771-6.113 4.157-10.009 4.157H14.417Zm0-14.166h99.166V56.833H14.417v70.834Z" fill-opacity=".5"/></symbol><symbol id="icon-cell" viewBox="0 0 35 36"><path d="M7.039 15.58c2.8 5.66 7.311 10.28 12.814 13.18l4.278-4.4a1.895 1.895 0 0 1 1.983-.48c2.178.74 4.53 1.14 6.942 1.14 1.069 0 1.944.9 1.944 2V34c0 1.1-.875 2-1.944 2C14.797 36 0 20.78 0 2 0 .9.875 0 1.944 0H8.75c1.07 0 1.944.9 1.944 2 0 2.5.39 4.9 1.109 7.14.214.7.058 1.48-.486 2.04l-4.278 4.4Z"/></symbol><symbol id="icon-email" viewBox="0 0 39 31"><path d="M39 0H0v31h39V0Zm-3.9 7.75-15.6 9.688L3.9 7.75V3.875l15.6 9.688 15.6-9.688V7.75Z"/></symbol><symbol id="icon-list_style" viewBox="0 0 47 43"><path d="M34.952 14.798c-2.346-18.767-42.305-3.606-24.136 15.85 13.117 14.046 29.305 3.788 29.875-9.704" stroke-width="11"/></symbol><symbol id="icon-mao" viewBox="0 0 33 48"><path d="M16.5 22.8a5.84 5.84 0 0 1-4.167-1.757 6.056 6.056 0 0 1-1.726-4.243 6.06 6.06 0 0 1 1.726-4.243A5.84 5.84 0 0 1 16.5 10.8a5.84 5.84 0 0 1 4.167 1.757 6.056 6.056 0 0 1 1.726 4.243c0 .788-.153 1.568-.449 2.296a6.008 6.008 0 0 1-1.277 1.947 5.878 5.878 0 0 1-1.912 1.3 5.802 5.802 0 0 1-2.255.457Zm0-22.8C12.124 0 7.927 1.77 4.833 4.92 1.738 8.072 0 12.345 0 16.8 0 29.4 16.5 48 16.5 48S33 29.4 33 16.8c0-4.456-1.738-8.729-4.833-11.88C25.073 1.77 20.877 0 16.5 0Z"/></symbol></svg>