<svg width="142" height="142" viewBox="0 0 142 142" fill="none" xmlns="http://www.w3.org/2000/svg">
<path d="M65.231 124.25V111.529C60.0046 110.346 55.4922 108.078 51.6937 104.725C47.8952 101.372 45.1104 96.6389 43.3394 90.525L54.2852 86.0875C55.7644 90.8208 57.9594 94.4201 60.8704 96.8854C63.7814 99.3507 67.6016 100.583 72.331 100.583C76.3741 100.583 79.8018 99.6702 82.6142 97.8439C85.4266 96.0176 86.8308 93.1836 86.8269 89.3417C86.8269 85.8903 85.7421 83.1548 83.5727 81.1353C81.4032 79.1157 76.3741 76.822 68.4852 74.2542C60.0046 71.5917 54.1866 68.4105 51.031 64.7106C47.8755 61.0107 46.2977 56.5002 46.2977 51.1792C46.2977 44.7694 48.3685 39.7896 52.5102 36.2396C56.6519 32.6896 60.8921 30.6681 65.231 30.175V17.75H77.0644V30.175C81.9949 30.9639 86.0636 32.7645 89.2704 35.5769C92.4773 38.3893 94.8183 41.8151 96.2935 45.8542L85.3477 50.5875C84.1644 47.4319 82.488 45.0653 80.3185 43.4875C78.1491 41.9097 75.1907 41.1208 71.4435 41.1208C67.1046 41.1208 63.8012 42.0833 61.5331 44.0082C59.265 45.9331 58.131 48.3234 58.131 51.1792C58.131 54.4333 59.6102 56.9972 62.5685 58.8708C65.5269 60.7444 70.6546 62.7167 77.9519 64.7875C84.756 66.7597 89.9094 69.8916 93.4121 74.1832C96.9148 78.4747 98.6641 83.4289 98.6602 89.0458C98.6602 96.0472 96.5894 101.372 92.4477 105.021C88.306 108.669 83.1782 110.937 77.0644 111.825V124.25H65.231Z" fill="white"/>
</svg>
