<svg width="88" height="54" viewBox="0 0 88 54" fill="none" xmlns="http://www.w3.org/2000/svg">
<path d="M44 0.166687C47.4036 0.166687 50.6678 1.51877 53.0745 3.92548C55.4813 6.3322 56.8333 9.59641 56.8333 13C56.8333 16.4036 55.4813 19.6678 53.0745 22.0746C50.6678 24.4813 47.4036 25.8334 44 25.8334C40.5964 25.8334 37.3322 24.4813 34.9255 22.0746C32.5187 19.6678 31.1667 16.4036 31.1667 13C31.1667 9.59641 32.5187 6.3322 34.9255 3.92548C37.3322 1.51877 40.5964 0.166687 44 0.166687ZM18.3333 9.33335C20.3867 9.33335 22.2933 9.88336 23.9433 10.8734C23.3933 16.1167 24.9333 21.3234 28.0867 25.3934C26.2533 28.9134 22.5867 31.3334 18.3333 31.3334C15.416 31.3334 12.6181 30.1744 10.5552 28.1115C8.49226 26.0486 7.33333 23.2507 7.33333 20.3334C7.33333 17.416 8.49226 14.6181 10.5552 12.5552C12.6181 10.4923 15.416 9.33335 18.3333 9.33335ZM69.6667 9.33335C72.5841 9.33335 75.3819 10.4923 77.4448 12.5552C79.5077 14.6181 80.6667 17.416 80.6667 20.3334C80.6667 23.2507 79.5077 26.0486 77.4448 28.1115C75.3819 30.1744 72.5841 31.3334 69.6667 31.3334C65.4133 31.3334 61.7467 28.9134 59.9133 25.3934C63.1102 21.2662 64.5941 16.0661 64.0567 10.8734C65.7067 9.88336 67.6133 9.33335 69.6667 9.33335ZM20.1667 46.9167C20.1667 39.3267 30.8367 33.1667 44 33.1667C57.1633 33.1667 67.8333 39.3267 67.8333 46.9167V53.3334H20.1667V46.9167ZM0 53.3334V47.8334C0 42.7367 6.93 38.4467 16.3167 37.2C14.1533 39.6934 12.8333 43.14 12.8333 46.9167V53.3334H0ZM88 53.3334H75.1667V46.9167C75.1667 43.14 73.8467 39.6934 71.6833 37.2C81.07 38.4467 88 42.7367 88 47.8334V53.3334Z" fill="white" fill-opacity="0.55"/>
</svg>
