<svg width="35" height="35" viewBox="0 0 35 35" fill="none" xmlns="http://www.w3.org/2000/svg">
<path d="M5.83317 29.1668C5.03109 29.1668 4.34421 28.881 3.77255 28.3093C3.20088 27.7377 2.91553 27.0513 2.91651 26.2502V8.75017C2.91651 7.94808 3.20234 7.26121 3.77401 6.68954C4.34567 6.11787 5.03206 5.83253 5.83317 5.8335H29.1665C29.9686 5.8335 30.6555 6.11933 31.2271 6.691C31.7988 7.26266 32.0841 7.94905 32.0832 8.75017V26.2502C32.0832 27.0522 31.7973 27.7391 31.2257 28.3108C30.654 28.8825 29.9676 29.1678 29.1665 29.1668H5.83317ZM17.4998 18.9585L29.1665 11.6668V8.75017L17.4998 16.0418L5.83317 8.75017V11.6668L17.4998 18.9585Z" fill="white"/>
</svg>
