<svg width="64" height="55" viewBox="0 0 64 55" fill="none" xmlns="http://www.w3.org/2000/svg">
<path d="M44.6668 54.5001L43.7168 49.7501C43.0835 49.4862 42.4892 49.2096 41.934 48.9204C41.3809 48.6291 40.814 48.2723 40.2335 47.8501L35.6418 49.2751L32.4752 43.8917L36.1168 40.7251C36.0113 39.9862 35.9585 39.3001 35.9585 38.6667C35.9585 38.0334 36.0113 37.3473 36.1168 36.6084L32.4752 33.4417L35.6418 28.0584L40.2335 29.4834C40.814 29.0612 41.3809 28.7044 41.934 28.4131C42.4892 28.1239 43.0835 27.8473 43.7168 27.5834L44.6668 22.8334H51.0002L51.9502 27.5834C52.5835 27.8473 53.1778 28.1376 53.733 28.4542C54.2861 28.7709 54.8529 29.1667 55.4335 29.6417L60.0252 28.0584L63.1918 33.6001L59.5502 36.7667C59.6557 37.4001 59.7085 38.0598 59.7085 38.7459C59.7085 39.432 59.6557 40.0917 59.5502 40.7251L63.1918 43.8917L60.0252 49.2751L55.4335 47.8501C54.8529 48.2723 54.2861 48.6291 53.733 48.9204C53.1778 49.2096 52.5835 49.4862 51.9502 49.7501L51.0002 54.5001H44.6668ZM0.333496 51.3334V42.4668C0.333496 40.7251 0.782107 39.089 1.67933 37.5584C2.57655 36.0279 3.81683 34.8668 5.40016 34.0751C8.09183 32.7029 11.1266 31.5417 14.5043 30.5917C17.8821 29.6417 21.6029 29.1667 25.6668 29.1667H26.7752C27.0918 29.1667 27.4085 29.2195 27.7252 29.3251C26.1946 33.1251 25.5613 36.8987 25.8252 40.6459C26.089 44.3931 27.3557 47.9556 29.6252 51.3334H0.333496ZM47.8335 45.0001C49.5752 45.0001 51.0667 44.3805 52.308 43.1413C53.5472 41.8999 54.1668 40.4084 54.1668 38.6667C54.1668 36.9251 53.5472 35.4336 52.308 34.1922C51.0667 32.953 49.5752 32.3334 47.8335 32.3334C46.0918 32.3334 44.6014 32.953 43.3622 34.1922C42.1208 35.4336 41.5002 36.9251 41.5002 38.6667C41.5002 40.4084 42.1208 41.8999 43.3622 43.1413C44.6014 44.3805 46.0918 45.0001 47.8335 45.0001ZM25.6668 26.0001C22.1835 26.0001 19.2016 24.7598 16.721 22.2792C14.2404 19.7987 13.0002 16.8167 13.0002 13.3334C13.0002 9.85008 14.2404 6.86814 16.721 4.38758C19.2016 1.90703 22.1835 0.666748 25.6668 0.666748C29.1502 0.666748 32.1321 1.90703 34.6127 4.38758C37.0932 6.86814 38.3335 9.85008 38.3335 13.3334C38.3335 16.8167 37.0932 19.7987 34.6127 22.2792C32.1321 24.7598 29.1502 26.0001 25.6668 26.0001Z" fill="white" fill-opacity="0.55"/>
</svg>
