<svg width="142" height="142" viewBox="0 0 142 142" fill="none" xmlns="http://www.w3.org/2000/svg">
<path d="M70.9998 71.0001C64.4915 71.0001 58.92 68.6827 54.2853 64.048C49.6505 59.4133 47.3332 53.8417 47.3332 47.3334C47.3332 40.8251 49.6505 35.2536 54.2853 30.6188C58.92 25.9841 64.4915 23.6667 70.9998 23.6667C77.5082 23.6667 83.0797 25.9841 87.7144 30.6188C92.3491 35.2536 94.6665 40.8251 94.6665 47.3334C94.6665 53.8417 92.3491 59.4133 87.7144 64.048C83.0797 68.6827 77.5082 71.0001 70.9998 71.0001ZM23.6665 118.333V101.767C23.6665 98.414 24.5303 95.3314 26.258 92.519C27.9857 89.7066 30.2774 87.5628 33.1332 86.0876C39.2471 83.0306 45.4596 80.7369 51.7707 79.2065C58.0818 77.6761 64.4915 76.9128 70.9998 76.9167C77.5082 76.9167 83.9179 77.682 90.229 79.2124C96.5401 80.7429 102.753 83.0346 108.867 86.0876C111.726 87.5667 114.02 89.7125 115.748 92.5249C117.475 95.3373 118.337 98.4179 118.333 101.767V118.333H23.6665ZM35.4998 106.5H106.5V101.767C106.5 100.682 106.228 99.6959 105.683 98.8084C105.139 97.9209 104.425 97.2306 103.542 96.7376C98.2165 94.0751 92.8422 92.0792 87.4186 90.7499C81.995 89.4206 76.5221 88.754 70.9998 88.7501C65.4776 88.7501 60.0047 89.4167 54.5811 90.7499C49.1575 92.0831 43.7832 94.079 38.4582 96.7376C37.5707 97.2306 36.8548 97.9209 36.3104 98.8084C35.7661 99.6959 35.4959 100.682 35.4998 101.767V106.5ZM70.9998 59.1667C74.254 59.1667 77.0408 58.0071 79.3601 55.6877C81.6794 53.3684 82.8371 50.5836 82.8332 47.3334C82.8332 44.0792 81.6735 41.2925 79.3542 38.9732C77.0348 36.6538 74.2501 35.4961 70.9998 35.5001C67.7457 35.5001 64.9589 36.6597 62.6396 38.9791C60.3203 41.2984 59.1626 44.0832 59.1665 47.3334C59.1665 50.5876 60.3262 53.3743 62.6455 55.6937C64.9648 58.013 67.7496 59.1707 70.9998 59.1667Z" fill="white"/>
</svg>
