<svg width="69" height="69" viewBox="0 0 69 69" fill="none" xmlns="http://www.w3.org/2000/svg">
<path fill-rule="evenodd" clip-rule="evenodd" d="M0.375 0.375H59.1458V9.85417H55.3542V4.16667H4.16667V47.7708H44.7128V51.5625H0.375V0.375ZM57.25 25.0208C58.7584 25.0208 60.205 24.4216 61.2717 23.355C62.3383 22.2884 62.9375 20.8418 62.9375 19.3333C62.9375 17.8249 62.3383 16.3783 61.2717 15.3117C60.205 14.2451 58.7584 13.6458 57.25 13.6458C55.7416 13.6458 54.2949 14.2451 53.2283 15.3117C52.1617 16.3783 51.5625 17.8249 51.5625 19.3333C51.5625 20.8418 52.1617 22.2884 53.2283 23.355C54.2949 24.4216 55.7416 25.0208 57.25 25.0208ZM61.1004 28.8315C63.5631 28.8315 65.512 29.9386 66.7879 31.6487C67.9804 33.2506 68.4847 35.2318 68.5984 37.0613C68.7099 38.9379 68.4542 40.8183 67.8458 42.5971C67.2771 44.2465 66.3159 45.9527 64.8333 47.1225V65.7813C64.8347 66.4957 64.5671 67.1846 64.0837 67.7107C63.6003 68.2368 62.9365 68.5617 62.2245 68.6208C61.5124 68.6798 60.8043 68.4686 60.2408 68.0292C59.6774 67.5899 59.3 66.9545 59.1837 66.2495L56.7381 51.5625H56.1732L53.409 66.3045C53.2778 67.0003 52.8917 67.6221 52.3263 68.0482C51.7609 68.4744 51.0568 68.6743 50.3518 68.6089C49.6468 68.5435 48.9915 68.2174 48.5142 67.6945C48.0369 67.1715 47.7718 66.4893 47.7708 65.7813V38.7334C47.3917 39.3109 47.0176 39.8917 46.6485 40.4757L46.5006 40.7089L46.4627 40.7695L46.4532 40.7866C46.1977 41.1968 45.8419 41.5352 45.4193 41.7697C44.9966 42.0042 44.5212 42.1272 44.0379 42.1269H34.5588C33.8046 42.1269 33.0812 41.8273 32.5479 41.294C32.0146 40.7607 31.715 40.0374 31.715 39.2832C31.715 38.529 32.0146 37.8057 32.5479 37.2724C33.0812 36.739 33.8046 36.4394 34.5588 36.4394H42.4777C42.9384 35.7266 43.545 34.8014 44.182 33.8725C44.8456 32.9037 45.5774 31.8781 46.2295 31.0742C46.5461 30.6818 46.9006 30.2723 47.2571 29.9367C47.4315 29.7718 47.6741 29.5576 47.9699 29.368C48.4918 29.0254 49.1011 28.8398 49.7254 28.8334L61.1004 28.8315Z" fill="white" fill-opacity="0.55"/>
</svg>
