<svg width="35" height="35" viewBox="0 0 35 35" fill="none" xmlns="http://www.w3.org/2000/svg">
<path d="M9.65417 15.7354C11.7542 19.8625 15.1375 23.2312 19.2646 25.3458L22.4729 22.1375C22.8667 21.7438 23.45 21.6125 23.9604 21.7875C25.5938 22.3271 27.3583 22.6188 29.1667 22.6188C29.9688 22.6188 30.625 23.275 30.625 24.0771V29.1667C30.625 29.9688 29.9688 30.625 29.1667 30.625C15.4729 30.625 4.375 19.5271 4.375 5.83333C4.375 5.03125 5.03125 4.375 5.83333 4.375H10.9375C11.7396 4.375 12.3958 5.03125 12.3958 5.83333C12.3958 7.65625 12.6875 9.40625 13.2271 11.0396C13.3875 11.55 13.2708 12.1188 12.8625 12.5271L9.65417 15.7354Z" fill="white"/>
</svg>
