<svg width="67" height="60" viewBox="0 0 67 60" fill="none" xmlns="http://www.w3.org/2000/svg">
<path d="M55.7398 39.009C56.8919 36.2111 57.5173 33.2157 57.5173 29.924C57.5173 27.554 57.1552 25.2828 56.5298 23.1761C54.3902 23.6699 52.1519 23.9332 49.8148 23.9332C45.0286 23.9383 40.3113 22.7927 36.0607 20.5929C31.81 18.3931 28.1505 15.2036 25.3906 11.2932C22.4383 18.4367 16.8689 24.1827 9.82104 27.3565C9.68937 28.1795 9.68937 29.0682 9.68937 29.924C9.68937 33.0666 10.3084 36.1784 11.511 39.0818C12.7136 41.9852 14.4763 44.6233 16.6984 46.8454C21.1863 51.3332 27.273 53.8545 33.6198 53.8545C37.076 53.8545 40.4006 53.0974 43.396 51.7478C45.2723 55.3357 46.1281 57.1132 46.0623 57.1132C40.6639 58.9236 36.4835 59.8124 33.6198 59.8124C25.654 59.8124 18.0502 56.6853 12.4544 51.0565C9.05078 47.6634 6.52072 43.4956 5.08104 38.9103H0.703125V23.9332H4.29104C5.37809 18.6419 7.87729 13.7435 11.5235 9.75794C15.1696 5.77232 19.8267 2.84812 25.0007 1.29561C30.1746 -0.256902 35.6723 -0.379806 40.9104 0.939938C46.1485 2.25968 50.9316 4.97284 54.7523 8.79153C58.9005 12.9234 61.73 18.1929 62.8827 23.9332H66.5364V38.9103H66.339L54.6206 49.674L37.1748 47.699V42.202H53.0735L55.7398 39.009ZM24.6335 29.167C25.621 29.167 26.5756 29.5619 27.2669 30.2861C27.9616 30.9865 28.3514 31.933 28.3514 32.9194C28.3514 33.9059 27.9616 34.8524 27.2669 35.5528C26.5756 36.244 25.621 36.639 24.6335 36.639C22.5598 36.639 20.881 34.9932 20.881 32.9194C20.881 30.8457 22.5598 29.167 24.6335 29.167ZM42.5731 29.167C44.6469 29.167 46.2927 30.8457 46.2927 32.9194C46.2927 34.9932 44.6469 36.639 42.5731 36.639C40.4994 36.639 38.8206 34.9932 38.8206 32.9194C38.8206 31.9242 39.216 30.9698 39.9197 30.266C40.6234 29.5623 41.5779 29.167 42.5731 29.167Z" fill="white" fill-opacity="0.55"/>
</svg>
