<svg width="212" height="479" viewBox="0 0 212 479" fill="none" xmlns="http://www.w3.org/2000/svg">
<g clip-path="url(#clip0_677_4054)">
<path d="M182.355 141.045C124.875 -63.6183 -278 -19.2744 -278 234.606C-278 311 -221.549 401.436 -126.274 412.468C55.4855 431.472 236.155 332.607 182.355 141.045Z" stroke="#F3FDAE" stroke-width="17"/>
<path d="M121.9 185.689C79.5848 24.9186 -217 59.7523 -217 259.184C-217 296.5 -175.608 386.303 -105.304 398.901C28.502 413.83 161.506 336.168 121.9 185.689Z" stroke="#F3FDAE" stroke-width="17"/>
<path d="M158.302 300.482C164.245 147.899 -103.232 99.6658 -156.302 274.986C-176 335 -156.302 401.512 -96.2383 427.508C16.2812 476.207 152.741 443.297 158.302 300.482Z" stroke="#E2FFFF" stroke-width="12"/>
</g>
<defs>
<clipPath id="clip0_677_4054">
<rect width="212" height="479" fill="white"/>
</clipPath>
</defs>
</svg>
