<svg width="355" height="718" viewBox="0 0 355 718" fill="none" xmlns="http://www.w3.org/2000/svg">
<g clip-path="url(#clip0_594_1252)">
<path d="M29.9924 372.432C42.5877 555.688 387.924 610.744 432.055 399.687C451.631 306.874 401.479 222.139 352.979 203.501C203.959 146.232 18.2035 200.907 29.9924 372.432Z" stroke="#FCFFE8" stroke-width="12"/>
<path d="M86.1281 322.898C32.0011 591.062 422.238 753.902 554.362 459.183C600.074 367.865 554.363 206.848 508.651 171.996C352.894 53.2435 136.79 71.9019 86.1281 322.898Z" stroke="#207CA1" stroke-width="17"/>
<path d="M165.6 375.13C128.42 570.314 424.667 696.246 520.264 483.006C543.548 423.511 520.264 301.006 481.956 272.161C362.991 182.579 200.4 192.442 165.6 375.13Z" stroke="#207CA1" stroke-width="17"/>
</g>
<defs>
<clipPath id="clip0_594_1252">
<rect width="356" height="718" fill="white"/>
</clipPath>
</defs>
</svg>
