<svg width="35" height="36" viewBox="0 0 35 36" fill="none" xmlns="http://www.w3.org/2000/svg">
<path d="M7.03889 15.58C9.83889 21.24 14.35 25.86 19.8528 28.76L24.1306 24.36C24.6556 23.82 25.4333 23.64 26.1139 23.88C28.2917 24.62 30.6444 25.02 33.0556 25.02C34.125 25.02 35 25.92 35 27.02V34C35 35.1 34.125 36 33.0556 36C14.7972 36 0 20.78 0 2C0 0.9 0.875 0 1.94444 0H8.75C9.81944 0 10.6944 0.9 10.6944 2C10.6944 4.5 11.0833 6.9 11.8028 9.14C12.0167 9.84 11.8611 10.62 11.3167 11.18L7.03889 15.58Z" fill="#207CA1"/>
</svg>
