<svg width="577" height="599" viewBox="0 0 577 599" fill="none" xmlns="http://www.w3.org/2000/svg">
<g clip-path="url(#clip0_635_2344)">
<path d="M124.005 572.692H100.098L101.591 442.331H120.641L124.005 572.692Z" fill="#4E87AF"/>
<path d="M26.0225 580.908L42.2968 590.261L67.7386 447.157L49.7401 444.286L26.0225 580.908Z" fill="#7FBCD4"/>
<path d="M51.3382 584.737L41.9604 590.181L63.5124 446.519L72.1752 447.676L51.3382 584.737Z" fill="#4E87AF"/>
<path d="M192.172 581.167L175.877 590.5L150.456 447.417L168.455 444.545L192.172 581.167Z" fill="#7FBCD4"/>
<path d="M166.857 584.976L176.234 590.42L154.682 446.759L146.02 447.935L166.857 584.976Z" fill="#4E87AF"/>
<path d="M107.751 455.912C147.187 455.912 179.157 448.734 179.157 439.879C179.157 431.024 147.187 423.845 107.751 423.845C68.3154 423.845 36.3462 431.024 36.3462 439.879C36.3462 448.734 68.3154 455.912 107.751 455.912Z" fill="#4E87AF"/>
<path d="M28.8398 421.033L36.3462 439.879H179.157L186.411 421.033H28.8398Z" fill="#4E87AF"/>
<path d="M107.625 437.067C151.137 437.067 186.411 429.888 186.411 421.033C186.411 412.178 151.137 405 107.625 405C64.1133 405 28.8398 412.178 28.8398 421.033C28.8398 429.888 64.1133 437.067 107.625 437.067Z" fill="#7FBCD4"/>
</g>
<g clip-path="url(#clip1_635_2344)">
<path d="M508.351 554.692H484.444L485.937 424.331H504.987L508.351 554.692Z" fill="#4E87AF"/>
<path d="M410.369 562.908L426.643 572.261L452.085 429.157L434.086 426.286L410.369 562.908Z" fill="#E09148"/>
<path d="M435.684 566.737L426.307 572.181L447.859 428.519L456.521 429.676L435.684 566.737Z" fill="#B06134"/>
<path d="M576.518 563.167L560.223 572.5L534.802 429.417L552.801 426.545L576.518 563.167Z" fill="#7FBCD4"/>
<path d="M551.203 566.976L560.58 572.42L539.029 428.759L530.366 429.935L551.203 566.976Z" fill="#4E87AF"/>
<path d="M492.098 437.912C531.534 437.912 563.503 430.734 563.503 421.879C563.503 413.024 531.534 405.845 492.098 405.845C452.662 405.845 420.692 413.024 420.692 421.879C420.692 430.734 452.662 437.912 492.098 437.912Z" fill="#4E87AF"/>
<path d="M413.186 403.033L420.692 421.879H563.503L570.757 403.033H413.186Z" fill="#4E87AF"/>
<path d="M491.972 419.067C535.484 419.067 570.757 411.888 570.757 403.033C570.757 394.178 535.484 387 491.972 387C448.459 387 413.186 394.178 413.186 403.033C413.186 411.888 448.459 419.067 491.972 419.067Z" fill="#7FBCD4"/>
</g>
<path d="M406.695 536.382C406.196 543.366 363.908 554.069 365.176 564.419C366.445 574.769 389.46 584.745 432.766 572.587C456.093 566.04 458.38 575.933 469.253 562.507C463.744 532.226 458.006 537.629 458.837 527.051C464.866 511.65 458.213 513.521 431.581 517.386C419.523 519.548 385.759 521.522 406.716 536.382H406.695Z" fill="#1D1A33"/>
<path d="M447.215 549.06C445.968 555.96 394.574 561.967 394.761 572.4C394.948 582.833 416.757 595.158 461.103 587.614C484.991 583.54 486.239 593.62 498.443 581.42C496.135 550.723 489.773 551.43 491.727 540.996C491.374 536.652 485.095 533.743 478.463 540.913C466.259 541.807 437.589 526.76 447.236 549.039L447.215 549.06Z" fill="#24243A"/>
<path d="M409.335 395.782C421.705 410.289 414.283 454.142 447.901 529.15C447.901 529.15 420.998 549.663 401.539 533.743C390.936 490.243 342.432 410.04 335.259 393.018C322.452 362.653 381.268 349.851 405.323 341.018C405.323 341.018 405.551 341.392 405.946 342.078C423.202 324.931 453.535 326.449 481.374 335.843L436.508 352.553C434.699 353.259 432.807 353.966 430.874 354.735C425.76 356.73 420.312 358.912 414.928 361.282C419.585 374.292 421.789 389.838 409.335 395.782Z" fill="#424243"/>
<path d="M459.107 416.898C464.263 439.303 465.531 480.537 491.727 541.495C491.727 541.495 464.825 562.902 445.365 546.296C434.741 500.905 385.904 413.074 380.603 394.618C377.006 382.148 392.827 371.528 410.894 363.111C417.526 360.014 424.47 357.229 430.874 354.735C432.807 353.966 434.699 353.259 436.508 352.553L481.374 335.843C485.282 337.152 489.129 338.628 492.892 340.207C519.794 351.617 542.04 369.429 543.994 382.793C539.795 413.511 492.871 417.917 459.107 416.898Z" fill="#545454"/>
<path d="M502.726 327.883L492.892 340.207C489.129 338.628 485.283 337.152 481.374 335.843L502.726 327.883Z" fill="white" stroke="#231F20" stroke-miterlimit="10"/>
<path d="M380.499 276.942C374.74 279.499 369.625 306.039 374.927 309.302C380.229 312.565 397.048 290.639 397.048 290.639C397.048 290.639 388.191 275.425 380.499 276.921V276.942Z" fill="#83B15F"/>
<path d="M399.564 287.375C399.564 287.375 394.74 293.673 374.428 299.658C347.671 330.854 324.448 311.63 333.159 298.702C338.003 292.426 342.348 287.542 346.319 283.822C341.621 282.284 330.456 278.044 333.471 273.658C340.706 264.202 347.879 265.116 359.501 275.03C369.917 271.227 377.838 276.693 387.006 283.593L399.564 287.375Z" fill="#E0B779"/>
<path d="M380.499 276.942C384.74 275.342 393.243 291.013 374.927 309.302C390.062 319.652 443.93 317.262 443.93 317.262L433.847 281.972C433.847 281.972 392.703 274.802 380.499 276.921V276.942Z" fill="#B0D581"/>
<path d="M436.155 179.738C412.807 180.798 367.505 187.158 394.761 237.391C395.821 261.438 411.04 264.992 419.169 278.771C427.298 292.551 428.379 309.905 426.591 319.798C406.071 333.245 392.973 334.658 394.74 344.198C425.884 340.311 510.626 362.612 526.032 372.151C537.175 379.051 544.785 384.538 536.302 399.045C556.469 381.712 550.46 378.179 545.512 364.378C546.926 341.039 509.42 204.117 509.42 204.117L476.155 174.043L436.175 179.697L436.155 179.738Z" fill="#C2E792"/>
<path d="M418.211 188.111C414.681 193.135 430.43 260.092 434.187 257.553C433.804 255.741 435.903 258.186 435.483 256.208C423.118 212.259 420.449 192.62 423.952 185.213C423.215 184.504 421.036 184.092 418.211 188.111Z" fill="#FF5443"/>
<path d="M367.754 146.921C372.536 153.821 379.438 188.301 361.642 178.491C368.544 187.241 416.05 195.741 431.705 184.602C447.36 173.462 420.562 157.271 420.562 157.271L367.754 146.921Z" fill="#28201A"/>
<path d="M422.35 166.478C429.772 172.672 430.853 181.692 424.824 189.652C426.425 199.919 439.502 204.512 473.66 178.678C465.698 170.905 461.623 144.178 461.623 144.178L422.35 166.458V166.478Z" fill="#D69355"/>
<path d="M380.415 32.7992C361.434 58.633 344.406 60.5243 357.421 81.1415C391.663 54.7465 395.634 31.2612 395.634 31.2612L380.415 32.7992Z" fill="#28201A"/>
<path d="M370.54 53.0213C360.977 67.2788 354.885 87.1062 357.837 106.913C358.607 112.088 358.503 117.325 357.837 122.521C353.763 154.694 385.239 191.792 453.473 165.772C527.258 137.652 455.074 47.4306 439.668 35.2307C430.438 27.9149 413.41 29.7438 401.227 32.4041C389.044 35.0644 377.63 42.4218 370.52 53.0213H370.54Z" fill="#E0B779"/>
<path d="M463.087 186.837C456.883 189.034 429.011 256.681 433.869 256.776C434.661 254.971 434.973 258.373 435.835 256.402C452.36 210.762 462.237 192.112 469.899 187.832C469.697 186.768 468.05 185.079 463.087 186.837Z" fill="#FF5443"/>
<path d="M368.17 47.784C377.38 36.9974 379.896 32.5705 401.31 41.0709C432.62 21.9709 431.56 15.4241 431.56 15.4241C431.56 15.4241 403.243 11.1843 395.988 16.3178C388.732 21.4513 368.17 47.8048 368.17 47.8048V47.784Z" fill="#28201A"/>
<path d="M402.266 39.4706C407.318 33.9006 422.433 55.9103 461.186 77.4212C453.764 116.681 438.629 200.272 471.81 194.162C504.992 188.052 515.075 188.052 521.166 170.822C505.511 177.722 508.567 129.692 503.12 70.0015C499.149 29.2659 455.76 18.0221 445.136 12.1611C427.36 2.35135 425.759 21.5137 402.266 39.4914V39.4706Z" fill="#28201A"/>
<path d="M456.446 63.1014C454.929 73.41 455.407 83.8017 455.365 94.1726C455.324 104.544 454.263 114.083 451.748 123.872C449.357 133.162 446.176 142.203 443.556 151.41C442.267 156.003 441.103 160.638 440.271 165.314C439.606 169.097 438.442 173.628 439.315 177.452C440.251 181.609 444.222 182.689 447.964 183.043C453.848 183.583 459.814 183.479 465.698 183.043C466.738 182.96 469.128 182.606 469.731 181.629C470.334 180.653 469.191 180.653 468.338 180.715C463.266 181.089 458.172 181.131 453.099 180.757C448.899 180.445 445.448 179.052 445.136 174.355C444.825 169.658 445.968 165.003 446.904 160.617C447.839 156.232 449.003 151.93 450.272 147.648C452.808 139.044 455.719 130.564 457.922 121.877C460.126 113.19 461.27 103.837 461.394 94.5467C461.519 83.5107 460.875 72.4331 462.476 61.4595C462.559 60.8568 456.717 61.2724 456.446 63.0806V63.1014Z" fill="#28201A"/>
<path d="M500.433 58.7738C502.308 68.3618 502.235 78.1069 502.669 87.8118C503.104 97.5167 504.502 106.403 507.333 115.465C510.022 124.066 513.475 132.401 516.385 140.914C517.819 145.162 519.133 149.454 520.123 153.797C520.917 157.311 522.227 161.506 521.519 165.119C520.762 169.047 516.922 170.216 513.278 170.695C507.547 171.434 501.711 171.574 495.943 171.399C494.924 171.362 492.574 171.127 491.947 170.236C491.321 169.346 492.439 169.301 493.274 169.325C498.247 169.474 503.227 169.311 508.171 168.759C512.265 168.301 515.585 166.861 515.711 162.452C515.838 158.044 514.544 153.732 513.463 149.664C512.382 145.597 511.08 141.617 509.678 137.66C506.872 129.707 503.705 121.886 501.222 113.843C498.738 105.799 497.265 97.0913 496.79 88.4012C496.249 78.0771 496.459 67.6835 494.477 57.4763C494.373 56.9155 500.099 57.0728 500.432 58.7544L500.433 58.7738Z" fill="#28201A"/>
<path d="M410.104 186.139C409.938 186.617 409.792 186.597 409.231 186.971C408.67 187.345 408.087 187.698 407.505 188.051C406.341 188.758 405.156 189.382 403.95 189.984C401.871 191.024 399.272 192.582 396.881 192.624C394.906 192.645 393.077 191.19 391.871 189.735C390.145 187.677 389.147 185.183 388.149 182.731C387.588 181.359 385.863 181.235 384.615 181.588C383.638 181.837 381.58 183.001 382.12 184.352C383.368 187.449 384.677 190.733 387.068 193.143C389.459 195.554 392.744 197.051 396.299 196.843C399.854 196.635 403.576 194.868 406.798 193.227C408.545 192.354 410.229 191.377 411.892 190.358C413.368 189.444 415.219 188.446 415.842 186.721C416.965 183.541 410.957 183.749 410.104 186.139Z" fill="#28201A"/>
<path d="M414.927 113.356C417.477 113.356 419.543 110.062 419.543 105.998C419.543 101.935 417.477 98.6411 414.927 98.6411C412.378 98.6411 410.312 101.935 410.312 105.998C410.312 110.062 412.378 113.356 414.927 113.356Z" fill="#472F1E"/>
<path d="M381.621 113.19C384.17 113.19 386.237 109.896 386.237 105.832C386.237 101.769 384.17 98.4749 381.621 98.4749C379.072 98.4749 377.006 101.769 377.006 105.832C377.006 109.896 379.072 113.19 381.621 113.19Z" fill="#472F1E"/>
<path d="M346.766 108.001C345.916 102.421 379.915 97.5709 388.009 104.274C394.944 110.02 394.055 116.828 386.792 122.344C382.832 125.342 348.91 122.157 346.766 108.001Z" stroke="#24243A" stroke-width="3" stroke-miterlimit="10"/>
<path d="M391.081 115.455C391.684 111.402 408.005 110.072 406.632 117.18C406.03 120.297 390.416 119.965 391.081 115.455Z" fill="#24243A"/>
<path d="M396.695 135.386C379.501 132.393 379.272 126.761 381.559 121.732C383.472 117.533 401.331 107.807 409.689 120.131C418.046 132.456 402.786 136.446 396.674 135.386H396.695Z" fill="#D69355"/>
<path d="M454.931 107.332C455.804 101.741 419.171 97.2314 410.502 103.986C403.079 109.785 404.098 116.581 411.957 122.026C416.24 124.977 452.727 121.506 454.931 107.353V107.332Z" stroke="#24243A" stroke-width="3" stroke-miterlimit="10"/>
<path d="M170.4 95.1884C178.713 95.1884 185.452 87.7071 185.452 78.4785C185.452 69.2498 178.713 61.7686 170.4 61.7686C162.087 61.7686 155.348 69.2498 155.348 78.4785C155.348 87.7071 162.087 95.1884 170.4 95.1884Z" fill="#D0A95E"/>
<path d="M63.9115 45.6405C44.1606 51.0026 18.5884 102.255 58.0694 146.897C72.9345 163.711 53.641 205.091 53.2876 204.301C81.9575 216.231 96.5524 215.441 109.027 207.751C96.0119 200.332 96.2821 185.201 103.725 179.631C117.26 187.862 175.909 191.312 179.901 149.911C183.872 108.531 175.119 77.7509 170.878 64.2209C166.637 50.6909 125.493 28.9306 63.9115 45.6405Z" fill="#FFD7BA"/>
<path d="M166.595 124.181C173.706 120.128 190.691 111.773 192.292 123.828C193.665 134.24 190.296 135.674 181.939 139.748C179.257 141.057 176.159 141.037 173.498 139.644C167.822 136.714 157.926 129.107 166.595 124.16V124.181Z" fill="#F2BC9D"/>
<path d="M16.1768 42.1281C12.7463 49.9842 9.23277 57.9235 7.09136 66.2369C4.94994 74.5503 6.03104 81.8037 11.2702 88.496C15.5323 93.962 22.5802 98.6799 29.7321 98.7007C37.3414 98.7007 44.4517 93.7334 49.1919 88.1427C50.0651 87.1243 48.4227 86.9788 47.7366 86.9996C46.5308 87.0411 44.5557 87.4984 43.7241 88.4752C41.5619 91.0316 39.067 93.3177 36.1148 94.9804C32.622 96.9341 28.9421 95.5208 25.6572 93.7542C20.3764 90.9276 15.9689 86.2514 13.6195 80.723C10.792 74.0515 12.2682 67.2969 14.3888 60.6669C16.5094 54.037 19.3369 47.5318 22.1436 41.1097C22.6426 39.9458 16.8836 40.4862 16.1768 42.1073V42.1281Z" fill="#D0A95E"/>
<path d="M74.1615 39.2184C76.594 33.7316 74.6605 27.5173 70.2945 23.5893C65.3672 19.1832 57.9034 17.4374 51.4376 17.1256C47.9656 16.9386 44.556 17.4374 41.4998 19.1624C38.4436 20.8874 36.0527 23.4646 33.5994 25.8754C27.7157 31.674 22.0191 37.6597 16.4889 43.8116C13.994 46.5758 19.7946 47.1785 21.4578 45.3288C25.6575 40.6525 29.9611 36.0801 34.3686 31.6117C36.5516 29.3879 38.7554 27.1848 41.0008 25.0233C43.2462 22.8618 45.1797 21.2615 48.2566 21.1784C53.3503 21.0537 59.5251 22.5293 63.7455 25.439C67.966 28.3487 70.6271 33.8979 68.4649 38.7612C67.1343 41.754 73.1844 41.4838 74.1823 39.26L74.1615 39.2184Z" fill="#D0A95E"/>
<path d="M75.7621 46.7835C41.9985 54.1201 78.2985 69.4998 39.8363 89.9715C-52.785 84.2769 45.325 -32.443 75.7621 46.7835Z" fill="#D0A95E"/>
<path d="M171.668 61.8517C171.564 61.6439 171.419 61.4153 171.273 61.2282C171.211 61.0827 171.128 60.9788 171.024 60.8333C170.462 60.0228 169.86 59.3785 169.215 58.9628C168.571 58.5264 167.905 58.3393 167.24 58.4017C167.531 58.9005 167.822 59.4408 168.072 60.002C168.321 60.0228 168.529 60.0643 168.758 60.1267C168.737 60.1683 168.716 60.2306 168.675 60.2722C168.612 60.4177 168.529 60.5631 168.425 60.7294C168.467 60.771 168.487 60.8333 168.487 60.8749C168.446 60.8541 168.404 60.8125 168.363 60.8125C168.342 60.8957 168.28 60.9788 168.217 61.0412C168.176 60.8957 168.113 60.771 168.03 60.6047C167.988 60.4177 167.905 60.2306 167.801 60.0643C167.801 60.002 167.76 59.9604 167.739 59.9189C167.51 59.3993 167.24 58.9005 166.949 58.4432C167.053 58.4225 167.136 58.4017 167.24 58.4017C167.219 58.3393 167.178 58.2978 167.157 58.2562C167.843 58.277 168.571 58.3601 169.34 58.5056C169.839 56.8637 170.026 55.014 170.109 53.3513C170.213 51.4184 170.275 49.3609 169.361 47.6358C168.363 45.8069 166.429 44.7677 164.579 43.9156C152.77 38.4495 139.776 36.8492 126.719 36.9531C113.622 34.085 99.1514 33.3784 86.5108 36.579C87.0098 37.3688 87.4256 38.2209 87.7998 39.0938L65.3254 54.4736C65.3254 54.4736 57.6953 94.6272 36.5723 100.945C36.5723 103.73 36.697 106.515 36.9465 109.217C38.0276 121.583 41.5828 132.848 48.6931 139.166C54.1194 144.133 57.1964 148.602 54.161 152.883C61.2089 144.092 70.6893 123.599 79.1094 106.682C79.1094 107.097 79.0679 107.492 79.0263 107.908C78.6521 111.462 77.4462 114.85 77.0512 118.404C76.6562 121.957 77.2591 125.906 79.8371 128.276C82.623 130.832 86.8019 130.77 90.5026 130.209C88.0077 128.816 85.9703 126.592 84.7229 123.973C83.018 120.44 82.8101 116.304 83.517 112.418C84.1199 109.051 85.3881 105.871 86.8851 102.816C87.093 102.338 87.3424 101.86 87.5711 101.403C88.8601 98.8047 90.2947 96.2068 90.9808 93.3594C91.5629 90.907 91.5421 88.1844 90.461 85.9397C90.2947 85.5656 90.0868 85.2331 89.8581 84.9006C89.567 84.4641 89.2136 84.09 88.8394 83.7367C90.9184 81.8246 92.1658 81.3882 94.4528 81.2427C96.8852 79.3306 101.023 77.3562 106.137 75.4025C106.948 82.0948 104.349 90.3666 101.688 96.2899C106.283 99.2412 111.958 97.0381 113.892 95.0221C114.723 94.17 116.574 89.369 119.277 83.8614C118.674 87.9973 118.611 92.1956 119.152 96.3523L127.239 82.4897C126.179 86.8127 125.992 91.1772 127.031 94.8974C127.031 90.7823 128.944 86.0229 131.751 81.5337C130.898 85.8566 129.36 90.1588 127.78 93.6504C132.333 96.5393 137.905 94.4402 139.921 92.4242C142.707 94.17 145.867 94.0453 148.362 93.1932C151.335 94.5233 153.019 94.5233 159.069 93.0061C163.622 89.2028 166.304 80.3906 166.72 73.0748C167.843 76.5456 168.612 80.0788 168.758 83.3003C167.677 87.5816 166.013 91.2395 163.955 93.3802C166.928 93.5049 167.739 92.9853 170.608 90.7823C170.504 90.616 170.421 90.429 170.338 90.2627C170.795 90.2419 171.273 90.1172 171.731 89.8678C173.207 88.6208 174.309 86.8958 174.766 84.9629C176.554 77.6472 174.787 67.1931 171.668 61.8517ZM132.79 66.1539C132.79 66.1539 132.957 66.05 133.04 65.9876C133.061 65.9668 133.081 65.9668 133.123 65.9876C132.998 66.0292 132.894 66.0915 132.79 66.1539ZM153.622 88.1012C155.514 83.9861 158.612 76.608 162.666 70.56C161.169 76.9613 157.593 83.6328 153.622 88.1012Z" fill="#D0A95E"/>
<path d="M133.123 65.9875C132.998 66.0291 132.894 66.0914 132.79 66.1538C132.873 66.0914 132.956 66.0499 133.04 65.9875C133.06 65.9667 133.081 65.9667 133.123 65.9875Z" fill="#D0A95E"/>
<path d="M168.758 60.1266C168.758 60.1266 168.716 60.2305 168.674 60.2721C168.508 60.2305 168.342 60.189 168.155 60.1474C168.051 60.1266 167.926 60.085 167.801 60.085C167.801 60.0227 167.76 59.9811 167.739 59.9396C167.51 59.42 167.24 58.9212 166.949 58.4639C167.053 58.4431 167.136 58.4224 167.24 58.4224C167.531 58.9212 167.822 59.4615 168.071 60.0227C168.321 60.0435 168.529 60.085 168.758 60.1474V60.1266Z" fill="#D0A95E"/>
<path d="M182.417 95.0428C177.24 94.9181 172.541 94.0245 170.608 90.7615C170.504 90.5952 170.421 90.4081 170.338 90.2419C170.795 90.2211 171.273 90.0964 171.731 89.847C178.072 86.9373 183.186 67.9412 172.126 61.6438C171.855 61.4984 171.564 61.3529 171.273 61.2074C171.211 61.0619 171.128 60.958 171.024 60.8125C170.462 60.0019 169.86 59.3577 169.215 58.942C168.57 58.5055 167.905 58.3185 167.24 58.3808C167.219 58.3185 167.178 58.2769 167.157 58.2354C167.843 58.2561 168.57 58.3393 169.34 58.4848C180.65 60.8956 199.59 78.6863 182.417 95.0221V95.0428Z" fill="#D0A95E"/>
<path d="M133.123 65.9875C132.998 66.0291 132.894 66.0914 132.79 66.1538C132.873 66.0914 132.956 66.0499 133.04 65.9875C133.06 65.9667 133.081 65.9667 133.123 65.9875Z" fill="#D0A95E"/>
<path d="M168.758 60.1266C168.758 60.1266 168.716 60.2306 168.674 60.2721C168.612 60.4176 168.529 60.5631 168.425 60.7294C168.425 60.7709 168.404 60.7917 168.362 60.8125C168.342 60.8956 168.279 60.9788 168.217 61.0411C168.175 60.8956 168.113 60.7709 168.03 60.6047C167.988 60.4176 167.905 60.2306 167.801 60.0643C167.801 60.0019 167.76 59.9604 167.739 59.9188C167.51 59.3992 167.24 58.9004 166.949 58.4432C167.053 58.4224 167.136 58.4016 167.24 58.4016C167.531 58.9004 167.822 59.4408 168.071 60.0019C168.321 60.0227 168.529 60.0643 168.758 60.1266Z" fill="#D0A95E"/>
<path d="M169.34 58.5263C169.319 58.6717 169.277 58.8172 169.215 58.9835C168.57 58.547 167.905 58.36 167.24 58.4223C167.219 58.36 167.178 58.3184 167.157 58.2769C167.843 58.2976 168.57 58.3808 169.34 58.5263Z" fill="#D0A95E"/>
<path d="M94.4528 81.2425C94.0577 81.575 93.7251 81.8452 93.434 82.1361C92.54 83.0298 91.5421 84.2976 90.461 85.9187C90.2947 85.5446 90.0868 85.2121 89.8581 84.8796C89.567 84.4431 89.2136 84.069 88.8394 83.7157C90.9184 81.8036 92.1658 81.3672 94.4528 81.2217V81.2425Z" fill="#D0A95E"/>
<path d="M87.7998 39.1144L65.3254 54.4942C65.3254 54.4942 57.6953 94.6478 36.5722 100.966C36.5307 86.8124 39.2958 72.3472 43.3499 62.9115C45.3666 58.2144 47.6743 54.7851 50.1484 53.1848C50.1484 53.1848 59.4209 41.7539 82.7062 37.6803C83.9536 37.2647 85.2218 36.9114 86.5108 36.5996C87.0098 37.3894 87.4256 38.2415 87.7998 39.1144Z" fill="#D0A95E"/>
<path d="M133.123 65.9875C132.998 66.0291 132.894 66.0914 132.79 66.1538C132.873 66.0914 132.956 66.0499 133.04 65.9875C133.06 65.9667 133.081 65.9667 133.123 65.9875Z" fill="#D0A95E"/>
<path d="M168.362 60.8123C168.362 60.8123 168.279 60.9786 168.217 61.0409C168.175 60.8955 168.113 60.7708 168.03 60.6045C168.134 60.6461 168.258 60.7084 168.362 60.7915V60.8123Z" fill="#28201A"/>
<path d="M168.674 60.2929C168.612 60.4384 168.529 60.5838 168.425 60.7501C168.466 60.7917 168.487 60.854 168.487 60.8956C168.446 60.8748 168.404 60.8332 168.362 60.8332C168.342 60.9164 168.279 60.9995 168.217 61.0619C168.175 60.9164 168.113 60.7917 168.03 60.6254C167.988 60.4384 167.905 60.2513 167.801 60.085C167.801 60.0227 167.76 59.9811 167.739 59.9396C167.51 59.42 167.24 58.9212 166.949 58.4639C167.053 58.4431 167.136 58.4224 167.24 58.4224C167.531 58.9212 167.822 59.4615 168.071 60.0227C168.321 60.0435 168.529 60.085 168.758 60.1474C168.737 60.189 168.716 60.2513 168.674 60.2929Z" fill="#D0A95E"/>
<path d="M171.731 89.8677C171.606 89.9924 171.481 90.0963 171.336 90.221C171.066 90.408 170.837 90.6159 170.608 90.7821C170.504 90.6159 170.421 90.4288 170.338 90.2626C170.795 90.2418 171.273 90.1171 171.731 89.8677Z" fill="#D0A95E"/>
<path d="M168.487 60.8956C168.487 60.8956 168.404 60.8332 168.362 60.8332C168.342 60.9164 168.279 60.9995 168.217 61.0619C168.175 60.9164 168.113 60.7917 168.03 60.6254C167.988 60.4384 167.905 60.2513 167.801 60.085C167.801 60.0227 167.76 59.9811 167.739 59.9396C167.51 59.42 167.24 58.9212 166.949 58.4639C167.053 58.4431 167.136 58.4224 167.24 58.4224C167.531 58.9212 167.822 59.4615 168.071 60.0227C168.113 60.0643 168.134 60.1058 168.155 60.1682C168.259 60.3552 168.342 60.5631 168.425 60.7501C168.466 60.7917 168.487 60.854 168.487 60.8956Z" fill="#D0A95E"/>
<path d="M133.123 65.9875C132.998 66.0291 132.894 66.0914 132.79 66.1538C132.873 66.0914 132.956 66.0499 133.04 65.9875C133.06 65.9667 133.081 65.9667 133.123 65.9875Z" fill="#D0A95E"/>
<path d="M168.674 60.2928C168.612 60.4383 168.529 60.5837 168.425 60.75C168.466 60.7916 168.487 60.8539 168.487 60.8955C168.446 60.8747 168.404 60.8331 168.362 60.8331C168.342 60.9163 168.279 60.9994 168.217 61.0618C168.175 60.9163 168.113 60.7916 168.03 60.6253C167.988 60.4383 167.905 60.2512 167.801 60.0849C167.801 60.0226 167.76 59.981 167.739 59.9395C167.864 59.9602 167.967 59.981 168.071 60.0018C168.321 60.0226 168.529 60.0642 168.758 60.1265C168.737 60.1681 168.716 60.2304 168.674 60.272V60.2928Z" fill="#D0A95E"/>
<path d="M172.209 61.623C172.209 61.623 172.147 61.6438 172.126 61.6646C171.98 61.7062 171.814 61.7685 171.668 61.8516C171.564 61.6438 171.419 61.4152 171.273 61.2281C171.211 61.0827 171.128 60.9787 171.024 60.8333C171.502 61.0411 171.897 61.3113 172.209 61.6022V61.623Z" fill="#D0A95E"/>
<path d="M96.2612 118.05C91.8745 114.891 88.6104 109.051 86.8848 102.795C87.0927 102.317 87.3422 101.839 87.5708 101.382C88.8599 98.7837 90.2944 96.1858 90.9805 93.3385C91.5626 90.886 91.5418 88.1634 90.4607 85.9188C90.2944 85.5447 90.0865 85.2121 89.8578 84.8796C89.5667 84.4431 89.2133 84.069 88.8391 83.7157C90.9181 81.8036 92.1655 81.3672 94.4525 81.2217C94.5772 81.2217 94.7227 81.2009 94.8683 81.2009C90.731 87.7477 89.442 109.446 96.2612 118.029V118.05Z" fill="#D0A95E"/>
<path d="M218.121 517.621C204.503 522.568 212.466 564.488 213.526 571.928C221.655 574.589 232.633 572.822 237.934 571.928C242.633 571.679 241.656 571.741 241.656 571.741C245.731 575.462 279.515 588.181 301.283 576.335C305.669 557.546 307.291 550.334 279.702 550.501C272.446 542.728 255.294 526.454 241.136 520.427C226.978 514.4 218.142 517.601 218.142 517.601L218.121 517.621Z" fill="#1B1310"/>
<path d="M186.353 527.078C172.736 532.024 180.698 573.944 181.759 581.385C189.888 584.045 200.865 582.278 206.167 581.385C210.865 581.135 209.888 581.198 209.888 581.198C213.963 584.918 247.747 597.637 269.515 585.791C273.132 567.356 275.523 559.791 247.934 559.957C240.679 552.184 223.527 535.911 209.368 529.883C195.21 523.856 186.374 527.057 186.374 527.057L186.353 527.078Z" fill="#28201A"/>
<path d="M202.819 516.561C222.986 527.701 266.791 528.491 275.274 521.071C269.972 506.211 273.943 336.41 248.205 331.9C176.54 341.19 213.693 454.751 213.693 454.751L202.819 516.561Z" fill="#1C5991"/>
<path d="M197.85 386.997C205.979 405.037 176.623 499.851 165.292 522.484C185.106 537.698 220.138 541.231 239.244 531.691C237.477 490.665 263.298 390.904 268.267 356.57C213.776 360.457 197.85 386.997 197.85 386.997Z" fill="#207CA1"/>
<path d="M109.927 427.4C132.755 445.981 176.81 419.17 211.842 397.95C265.98 378.85 258.558 383.63 265.461 370.89C272.363 358.15 275.606 304.944 145.5 343.289C67.2032 366.38 109.927 427.4 109.927 427.4Z" fill="#207CA1"/>
<path d="M108.808 212.449C131.635 211.389 134.065 252.299 161.405 299.79C179.991 318.62 207.331 327.64 210.512 331.36C208.661 339.05 132.756 328.45 132.756 328.45L108.808 212.449Z" fill="#2D8F54"/>
<path d="M50.7372 188.889C53.3984 197.39 9.34348 311.99 90.0103 415.2C119.2 435.63 114.418 429.52 122.381 431.91C120.531 412.02 139.367 356.3 162.714 349.67C186.062 343.04 148.639 328.18 145.188 311.719C141.737 295.259 111.167 213.935 113.288 195.375C98.9631 196.165 59.1989 176.419 50.7164 188.889H50.7372Z" fill="#5AB470"/>
<path d="M227.019 322.215C238.184 314.691 234.94 300.268 218.89 311.719C203.526 324.626 202.694 332.274 202.694 332.274L227.019 322.215Z" fill="#F2BC9D"/>
<path d="M200.345 332.15C205.293 317.643 262.633 304.902 256.604 338.863C231.468 352.31 200.345 332.15 200.345 332.15Z" fill="#F2BC9D"/>
<path d="M203.318 329.448C229.202 312.613 242.321 317.331 246.687 327.744C251.074 338.156 241.552 373.114 201.426 353.91C198.308 336.036 203.297 329.448 203.297 329.448H203.318Z" fill="#F2BC9D"/>
<path d="M99.4282 219.934C105.718 224.462 139.699 295.891 144.307 301.806C152.797 302.911 154.561 309.909 176.461 322.084C198.713 328.345 198.713 327.977 203.322 328.345C208.262 332.765 213.929 354.907 203.322 367.797C173.638 365.956 122.407 340.868 112.526 334.975C90.6268 316.538 64.8247 260.859 61.2958 244.632C57.767 228.405 80.0195 205.917 99.4489 219.934H99.4282Z" fill="#6CCD81"/>
<path d="M161.421 109.912C162.072 105.414 161.311 101.58 159.72 101.35C158.129 101.12 156.311 104.58 155.659 109.078C155.008 113.577 155.769 117.41 157.36 117.64C158.951 117.871 160.769 114.411 161.421 109.912Z" fill="#165E87"/>
<path d="M466.405 210.331C470.438 218.707 509.275 273.284 519.753 293.299C521.5 296.624 520.211 300.76 516.884 302.506C499.171 311.858 471.249 323.206 473.495 336.279C501.104 358.912 500.044 355.732 506.759 353.612C512.892 351.68 540.752 333.889 556.365 317.366C559.297 314.269 560.918 310.133 560.731 305.894C559.172 267.569 516.697 204.491 505.699 195.492C491.977 178.242 456.155 191.252 466.426 210.352L466.405 210.331Z" fill="#B0D581"/>
<path d="M475.659 108.78C471.896 126.092 469.485 143.675 468.507 161.362C468.05 169.675 467.26 178.467 470.441 186.364C473.102 192.974 477.551 197.691 485.077 197.421C493.705 197.109 500.234 191.789 506.117 186.011C507.136 185.013 505.244 184.764 504.62 184.785C503.269 184.806 501.585 185.325 500.608 186.281C497.593 189.233 494.308 192.745 490.233 194.179C486.159 195.613 482.25 193.888 479.755 190.729C474.162 183.704 473.934 174.31 474.246 165.81C474.952 146.294 477.468 126.861 481.605 107.782C481.959 106.14 475.992 107.075 475.639 108.738L475.659 108.78Z" fill="#28201A"/>
<path d="M529.171 291.761C526.094 291.221 522.768 292.364 520.668 294.691C518.568 297.019 517.82 300.469 518.693 303.462C518.922 304.231 519.254 304.979 519.733 305.623C521.146 307.556 523.766 308.388 526.157 308.138C528.548 307.889 530.752 306.663 532.643 305.166C534.39 303.794 535.97 302.111 536.698 300.012C537.425 297.913 537.113 295.356 535.513 293.839C534.057 292.447 531.645 291.948 530.876 290.077" fill="#B0D481"/>
<path d="M477.29 329.012C446.395 328.845 437.934 339.902 439.888 351.042C441.842 362.182 468.745 386.436 492.113 348.59C485.065 331.859 477.29 329.032 477.29 329.032V329.012Z" fill="#E0B779"/>
<path d="M437.406 251.768L430.336 252.094L431.973 258.843L436.47 258.585L437.406 251.768Z" fill="#999292"/>
<rect width="33.0297" height="19.5" transform="matrix(-0.998775 0.0494873 0.0495763 0.99877 449.742 256.356)" fill="#E3F2F7"/>
<path d="M453.443 335.745C439.992 335.454 434.898 321.571 454.608 322.527C474.504 325.084 479.348 331.069 479.348 331.069L453.443 335.766V335.745Z" fill="#E0B779"/>
<defs>
<clipPath id="clip0_635_2344">
<rect width="166.15" height="185.5" fill="white" transform="translate(26.0225 405)"/>
</clipPath>
<clipPath id="clip1_635_2344">
<rect width="166.15" height="185.5" fill="white" transform="translate(410.369 387)"/>
</clipPath>
</defs>
</svg>
