<svg width="165" height="198" viewBox="0 0 165 198" fill="none" xmlns="http://www.w3.org/2000/svg">
<path d="M92.7083 0C54.2229 0 23.1896 32.45 21.25 73.26L1.64998 101.09C-0.800017 104.5 1.64998 110 5.93748 110H21.25V143C21.25 155.21 30.3354 165 41.6667 165H51.875V198H123.333V146.41C147.527 134.09 164.167 107.8 164.167 77C164.167 34.54 132.317 0 92.7083 0ZM133.542 64.13C133.542 81.07 119.658 94.6 98.6292 115.17L92.7083 121L86.7875 115.17C65.7583 94.6 51.875 81.07 51.875 64.13C51.875 50.93 61.675 40.04 73.925 39.93H74.3333C81.3771 39.93 88.1146 43.34 92.7083 49.06C97.3021 43.34 104.04 39.93 111.083 39.93C123.333 39.82 133.542 50.49 133.542 63.69V64.13Z" fill="#5AB470"/>
</svg>
