<svg width="191" height="195" viewBox="0 0 191 195" fill="none" xmlns="http://www.w3.org/2000/svg">
<path d="M172 146.042C177.16 146.042 181.51 147.983 185.05 151.867C188.59 155.75 190.33 160.281 190.27 165.458L118 194.583L55 175.167V87.7916H72.55L137.98 113.907C142.66 115.913 145 119.538 145 124.78C145 127.822 143.98 130.476 141.94 132.741C139.9 135.006 137.32 136.204 134.2 136.333H109L93.25 129.829L90.28 138.955L109 146.042H172ZM136 12.3579C142.36 4.39704 150.46 0.416626 160.3 0.416626C168.46 0.416626 175.36 3.65274 181 10.125C186.64 16.5972 189.64 24.0402 190 32.4541C190 39.1205 187 47.0813 181 56.3366C175 65.5919 169.09 73.3262 163.27 79.5395C157.45 85.7529 148.36 94.9758 136 107.208C123.52 94.9758 114.34 85.7529 108.46 79.5395C102.58 73.3262 96.67 65.5919 90.73 56.3366C84.79 47.0813 81.88 39.1205 82 32.4541C82 23.6519 84.91 16.2088 90.73 10.125C96.55 4.04107 103.57 0.804959 111.79 0.416626C121.39 0.416626 129.46 4.39704 136 12.3579ZM0.855988 87.7916H37V194.583H0.855988V87.7916Z" fill="#5AB470"/>
</svg>
