<svg width="128" height="142" viewBox="0 0 128 142" fill="none" xmlns="http://www.w3.org/2000/svg">
<path d="M64 120.583L55.1458 101.104L35.6667 92.2501L55.1458 83.3959L64 63.9168L72.8542 83.3959L92.3333 92.2501L72.8542 101.104L64 120.583ZM14.4167 141.833C10.5208 141.833 7.18458 140.447 4.40792 137.676C1.63597 134.899 0.25 131.563 0.25 127.667V28.5001C0.25 24.6043 1.63597 21.2704 4.40792 18.4984C7.18458 15.7217 10.5208 14.3334 14.4167 14.3334H21.5V0.166748H35.6667V14.3334H92.3333V0.166748H106.5V14.3334H113.583C117.479 14.3334 120.815 15.7217 123.592 18.4984C126.364 21.2704 127.75 24.6043 127.75 28.5001V127.667C127.75 131.563 126.364 134.899 123.592 137.676C120.815 140.447 117.479 141.833 113.583 141.833H14.4167ZM14.4167 127.667H113.583V56.8334H14.4167V127.667Z" fill="white" fill-opacity="0.5"/>
</svg>
