<svg width="831" height="1494" viewBox="0 0 831 1494" fill="none" xmlns="http://www.w3.org/2000/svg">
<g clip-path="url(#clip0_594_1299)">
<path d="M310.591 1388.88C312.406 1420.11 404.739 1415.81 408.621 1446.53C414.023 1489.11 385.285 1482.61 309.494 1472.94C255.183 1465.98 254.001 1478.34 226.529 1463.79C219.524 1427.71 224.377 1411.54 223.828 1395.38C223.279 1379.22 255.056 1378.67 260.458 1389.98C265.859 1401.29 305.738 1304.87 310.549 1388.88H310.591Z" fill="#207CA1"/>
<path d="M99.9717 1403.44C108.412 1361.33 27.8099 1335.84 39.246 1396.9C40.2166 1401.96 40.09 1407.28 38.4864 1412.18C31.3968 1433.87 4.76874 1433.07 9.49512 1485.86C40.2166 1497.71 67.6887 1497.16 97.3131 1480.45C113.476 1474 118.877 1474 131.242 1462.69C124.785 1428.21 127.992 1407.2 132.339 1392.13C136.686 1377.07 118.877 1375.42 100.014 1403.44H99.9717Z" fill="#207CA1"/>
<path d="M384.612 476.666L534.958 572.525L516.976 597.165L351.042 508.425L384.612 476.666Z" fill="#DABB8C"/>
<path d="M259.606 390.325C307.391 390.049 365.639 450.697 398.253 461.418C403.57 493.845 336.371 558.539 330.287 549.589C301.999 507.626 241.611 440.828 238.574 427.667C235.537 414.506 253.159 390.415 259.614 390.366L259.606 390.325Z" fill="#419B5F"/>
<path d="M673.497 404.457C742.486 440.473 751.177 444.213 761.637 576.898C770.419 688.468 764.105 772.206 762.342 814.391C761.832 826.286 763.733 838.192 768.105 849.311C772.478 860.429 773.833 866.624 767.37 876.635C742.412 885.556 717.261 876.14 709.348 867.084C709.44 861.336 710.172 856.651 712.24 851.643C715.77 842.936 715.977 833.388 714.127 824.194C712.796 817.662 712.853 808.991 716.189 789.31C722.158 754.253 641.438 453.936 652.649 429.682C663.86 405.428 673.539 404.46 673.539 404.46L673.497 404.457Z" fill="#B5DEC7"/>
<path d="M584.215 1394.62C561.301 1435.01 500.068 1414.29 482.64 1452.27C481.88 1453.95 482.26 1456.11 483.611 1457.2C504.373 1474.25 613.206 1455.73 620.296 1448.47C628.947 1402.13 624.01 1388.84 624.01 1388.84L581.472 1388.46L584.257 1394.58L584.215 1394.62Z" fill="#28201A"/>
<path d="M623.419 1395.34C631.31 1386.01 669.459 1374.24 671.189 1393.19C675.451 1440.2 692.036 1458.51 656.841 1482.27C642.493 1490.16 625.36 1487.21 620.929 1479.4C615.19 1469.36 615.19 1432.35 623.461 1395.38L623.419 1395.34Z" fill="#28201A"/>
<path d="M535.77 1202.96C595.018 1352.09 551.932 1334.78 549.78 1375.84C550.835 1396.35 570.289 1385.25 565.943 1406.86C582.105 1410.11 607.931 1425.51 626.246 1411.46C645.658 1413.61 669.375 1437.41 686.592 1424.41C713.558 1385.51 706.004 1366.1 685.537 1329.38C706.257 1019.22 705.118 897.607 691.909 822.831C683.343 826.038 674.903 826.882 669.375 827.515C649.963 809.707 583.709 777.847 573.454 778.354C563.495 779.957 516.906 788.397 487.282 796.119C486.058 796.457 484.919 796.752 483.779 797.048C483.653 799.748 483.526 802.449 483.4 805.192C477.787 932.421 485.13 1075.56 535.77 1202.96Z" fill="#DABB8C"/>
<path d="M483.779 798.778C484.919 798.482 486.058 798.187 487.282 797.849C516.906 790.127 563.495 781.729 573.454 780.126C583.709 779.62 649.963 811.395 669.374 829.161C674.903 828.528 683.343 827.684 691.909 824.477C687.098 797.301 680.684 776.328 673.13 754.722C671.231 749.279 669.248 743.793 667.222 738.138C667.222 738.138 540.876 734.889 487.788 743.413C487.62 743.455 487.451 743.455 487.282 743.498C485.974 760.461 484.834 777.847 483.948 795.571C483.948 796.626 483.864 797.723 483.779 798.778Z" fill="#DABB8C"/>
<path d="M464.663 805.445L483.4 806.88C483.526 804.179 483.653 801.479 483.779 798.778C484.919 798.482 486.058 798.187 487.282 797.849L487.198 793.883L483.948 795.571L466.646 804.432L466.266 804.601L464.663 805.445Z" fill="#93B9C5"/>
<path d="M464.663 805.445C465.127 805.192 465.676 804.897 466.267 804.601L466.646 804.432C470.444 802.702 476.437 800.803 483.779 798.778C484.919 798.482 486.058 798.187 487.282 797.849C516.906 790.127 563.495 781.729 573.454 780.126C583.709 779.62 649.963 811.395 669.375 829.161C674.903 828.528 683.343 827.684 691.909 824.477C697.522 822.409 703.219 819.286 708.156 814.602C700.054 808.146 697.902 781.223 696.298 756.959C696.298 756.959 689.124 756.115 673.13 754.722C644.012 752.191 585.608 747.844 487.788 743.413C484.792 743.244 481.754 743.118 478.673 742.991C474.875 760.208 474.875 786.625 464.663 805.445Z" fill="#B5DEC7"/>
<path d="M574 384C540.071 409.361 473.902 415.691 470.104 460.633C466.306 505.574 467.699 637.698 467.699 651.286C467.699 664.874 456.389 627.233 403.048 688.379C425.667 729.143 448.835 735.43 482.257 726.02C515.68 716.61 567.375 407.251 567.375 407.251L574 384Z" fill="#B5DEC7"/>
<path d="M702 419.5C686.555 443.216 657.559 555.503 720.563 590.527C701.7 657.876 701.7 765.609 701.7 765.609C677.983 789.325 485.678 770.462 470.571 755.904C472.723 696.108 476.774 607.744 475.171 572.213C475.973 543.392 525 447.5 516.5 411.5C534.984 403.06 553.662 397.384 575.269 383.965C612.489 384.64 633.505 380.083 651.102 393.629C665 399.5 684 409 702 419.5Z" fill="#24243A"/>
<path d="M51.7371 1399.98C64.6925 1408 111.366 1435.47 141.707 1417.83C154.283 1410.53 161.879 1396.94 161.499 1382.43C158.461 1267.82 204.881 1006.86 220.241 906.933L229.314 904.992C247.376 1047.62 213.827 1371.37 209.311 1387.83C204.501 1405.64 217.203 1410.24 233.365 1409.39C249.528 1408.59 217.92 1432.22 314.896 1401.5C330.256 1378.88 332.155 1368.12 317.85 1351.5C317.048 1303.81 342.072 827.853 334.012 797.174C334.012 797.174 153.017 810.889 122.295 817.345C92.3756 1165.61 65.4521 1258.57 44.4366 1339.34C15.3187 1387.83 34.7306 1389.47 51.6949 1399.98H51.7371Z" fill="#B5DEC7"/>
<path d="M179.434 369.66C213.489 366.369 282.57 384.725 296.074 394.979C303.079 400.381 331.649 732.737 346.714 815.151C340.258 827.009 136.601 853.931 103.769 833.465C92.4598 821.059 100.014 817.176 101.617 798.989C99.465 788.228 67.6885 475.747 50.9774 437.515C53.6782 416.501 157.11 371.812 179.476 369.618L179.434 369.66Z" fill="#B9D870"/>
<path d="M179.457 369.39C213.512 366.098 282.593 384.454 296.097 394.709C303.102 400.11 331.671 732.466 346.737 814.88C340.28 826.738 136.624 853.661 103.792 833.195C92.4825 820.788 100.036 816.906 101.64 798.718C99.4877 787.958 67.7112 475.477 51.0001 437.245C53.7009 416.23 157.133 371.542 179.499 369.347L179.457 369.39Z" fill="#5AB470"/>
<path d="M209.565 326.026C203.91 340.585 207.961 373.711 215.219 384.218C222.478 394.726 169.179 401.984 139.26 389.873C151.371 369.66 149.767 338.137 139.26 316.321C177.239 323.579 209.565 326.026 209.565 326.026Z" fill="#DABB8C"/>
<path d="M133.9 31.3535C167.744 25.8677 299.282 0.126501 306.287 143.939C305.19 217.196 372.54 224.75 299.83 302.859C240.075 367.043 91.3627 327.63 72.4993 283.448C53.636 239.266 -39.5413 59.3312 133.9 31.3535Z" fill="#E8D6AF"/>
<ellipse cx="191" cy="205.5" rx="17" ry="17.5" fill="#EBC099" fill-opacity="0.31"/>
<ellipse cx="285" cy="198.5" rx="17" ry="17.5" fill="#EBC099" fill-opacity="0.31"/>
<path d="M579.834 124.197C576 119.111 576.342 111.88 573.067 106.405C569.496 100.448 561.536 97.5863 554.949 99.772C548.363 101.958 543.713 108.846 543.983 115.811C544.086 117.963 544.575 120.165 543.992 122.207C543.501 123.859 542.354 125.273 541.009 126.365C535.35 130.926 527.291 130.318 520.053 130.866C512.814 131.415 504.249 134.706 503.181 141.873C502.697 145.05 503.874 148.336 503.175 151.489C501.926 157.063 495.586 159.651 489.959 160.694C484.331 161.736 478.075 162.368 474.342 166.677C471.381 170.113 470.872 174.944 470.757 179.444C470.648 184.494 470.901 189.81 473.607 194.105C478.422 201.69 489.49 203.772 493.578 211.759C495.722 215.935 495.345 221.305 492.631 225.143C490.561 228.12 487.387 230.092 484.719 232.528C480.369 236.551 477.389 242.192 477.105 248.147C476.821 254.102 479.303 260.197 484.063 263.762C488.415 267.024 494.089 267.968 499.521 268.086C506.994 268.28 514.524 267.198 521.653 264.922C525.157 263.811 528.669 262.317 531.326 259.755C533.906 257.285 535.525 254.008 537.107 250.778C544.794 235.025 552.582 218.968 555.178 201.67C556.327 193.987 556.408 186.185 557.301 178.483C559.059 162.74 564.025 147.353 571.84 133.538C574.223 129.305 577.026 125.036 581.116 122.391" fill="#AAA7A3"/>
<path d="M760.412 855.584C806.747 872.463 767.965 997.076 717.663 906.602C705.805 927.786 665.588 907.699 719.098 852.377C735.598 845.54 760.412 855.626 760.412 855.626V855.584Z" fill="#F7E3D5"/>
<path d="M426.326 686.135C428.225 695.883 437.636 702.213 447.384 700.356C457.132 698.499 463.462 689.047 461.605 679.299C459.749 669.551 451.773 666.428 440.548 665.078C430.715 663.896 424.469 676.387 426.326 686.135Z" fill="#F7E3D5"/>
<path d="M270.417 189.261C265.243 189.261 261.048 182.97 261.048 175.209C261.048 167.448 265.243 161.157 270.417 161.157C275.591 161.157 279.785 167.448 279.785 175.209C279.785 182.97 275.591 189.261 270.417 189.261Z" fill="#28201A"/>
<path d="M205.943 194.745C200.099 193.963 196.195 187.093 197.224 179.401C198.254 171.709 203.826 166.107 209.67 166.889C215.515 167.67 219.418 174.54 218.389 182.232C217.36 189.925 211.788 195.526 205.943 194.745Z" fill="#28201A"/>
<path d="M248.093 154.911C248.093 164.406 290.462 191.919 274.679 246.144C263.538 262.644 233.365 257.285 224.757 246.144C231.931 204.494 221.17 146.302 248.093 154.911Z" fill="#DABB8C"/>
<path d="M140.61 72.877C142.889 75.1979 145.041 77.6876 147.404 79.8397C145.927 77.8986 144.155 76.1684 142.383 74.5227C141.792 73.9741 141.201 73.4255 140.61 72.877Z" fill="#28201A"/>
<path d="M87.5648 223.484C78.5762 201.92 12.871 186.476 24.7292 239.646C36.5873 292.816 70.6848 283.11 84.6952 282.013C98.7055 280.916 87.5648 223.484 87.5648 223.484Z" fill="#DABB8C"/>
<path d="M140.399 72.6662C139.808 72.0754 139.217 71.4846 138.584 70.936C138.162 70.5562 137.74 70.2187 137.318 69.8389C138.373 70.7672 139.386 71.7378 140.399 72.6662Z" fill="#28201A"/>
<path d="M2.10989 142.378C8.60867 158.667 28.6536 166.136 35.912 182.087C38.8238 188.459 39.3724 195.59 39.9632 202.553C40.1742 204.958 40.4696 207.448 41.9466 209.347C43.6346 211.373 46.3775 212.132 48.9517 212.765C59.2485 215.213 69.6297 217.154 80.0952 218.631C80.3907 214.116 80.686 209.558 80.9392 205.001C87.227 213.44 98.7476 217.618 108.96 215.171C101.702 204.199 99.3806 190.062 102.757 177.361C107.019 161.283 119.299 148.877 130.271 136.386C141.243 123.937 151.877 109.21 151.497 92.6258C151.413 89.2499 150.864 85.7896 149.303 82.7935C148.755 81.7385 148.121 80.7679 147.404 79.8396C145.041 77.6874 142.889 75.1977 140.61 72.8768C141.201 73.4254 141.792 73.974 142.382 74.5225C144.155 76.1683 145.927 77.8984 147.404 79.8396C149.261 81.5275 151.202 83.0045 153.481 84.0594C156.73 85.6208 160.359 86.1272 163.904 86.5914C194.752 90.4736 227.077 89.3765 255.351 102.205C250.836 93.5963 240.835 88.2371 231.171 89.0389C251.891 86.3804 273.328 89.7563 292.276 98.618C299.619 102.036 306.793 106.382 314.853 107.1C321.605 107.691 328.737 105.454 333.379 100.517C337.979 95.5797 339.709 87.8573 336.839 81.6963C332.535 87.1399 324.179 88.8279 318.103 85.5364C311.984 82.2027 308.903 74.2694 311.097 67.6864C311.984 65.1123 313.545 62.7913 314.262 60.1328C316.541 51.3977 308.565 43.3378 300.59 39.0757C292.361 34.6871 283.245 31.9441 273.962 31.1002C272.02 30.9314 269.826 30.7204 268.433 29.3278C266.619 27.4711 266.999 24.475 266.914 21.9009C266.577 13.7987 260.247 6.96256 252.862 3.67107C245.477 0.421773 237.163 0.0841839 229.061 -0.000213379C197.453 -0.253405 165.212 2.99589 136.263 15.6977C114.699 25.1924 95.4138 39.7931 73.0057 47.0934L61.8227 51.1445C61.8227 51.1445 62.0759 51.1867 62.2025 51.1867C58.7422 51.3555 55.2817 50.9335 52.5809 48.8658C46.9683 44.4771 48.3609 35.6998 50.3021 28.8214C45.4914 30.847 43.5501 36.6704 43.4235 41.8608C43.3391 47.0934 44.4364 52.3683 43.2548 57.4321C42.031 62.7491 38.4439 67.18 34.9836 71.3577C30.3838 76.8857 25.8262 82.4137 21.2264 87.9417C14.7698 95.7485 8.27106 103.682 4.09329 112.923C-0.0845032 122.123 -1.6459 133.01 2.10989 142.378Z" fill="#4E3C2F"/>
<path d="M140.61 72.877C142.889 75.1979 145.041 77.6876 147.404 79.8397C145.927 77.8986 144.155 76.1684 142.383 74.5227C141.792 73.9741 141.201 73.4255 140.61 72.877Z" fill="#28201A"/>
<path d="M402.798 666.949C418.581 667.16 457.826 696.699 439.723 722.018C421.619 747.338 378.659 738.012 349.415 718.938C320.17 699.864 224.292 713.157 174.454 693.365C146.349 658.805 118.624 610.741 108.2 568.458C115.374 555.714 152.848 560.735 152.848 560.735C152.848 560.735 177.577 611.12 190.828 645.47C195.048 656.4 204.458 664.248 215.641 666.147C258.263 673.363 293.247 678.723 339.709 686.023C359.838 673.363 376.17 666.654 402.798 667.034V666.949Z" fill="#DABB8C"/>
<path d="M446.77 673.405C454.619 657.496 358.868 615.551 369.249 685.263C379.63 754.975 446.77 673.405 446.77 673.405Z" fill="#F7E3D5"/>
<path d="M52.8343 428.907C29.1179 470.388 59.8394 554.152 46.6309 584.578C39.6257 601.541 161.668 578.374 156.815 568.669C134.196 523.432 105.626 438.022 95.6671 428.865C85.7079 419.708 56.0415 423.252 52.8343 428.865V428.907Z" fill="#6BC881"/>
<path d="M127 388.5C140 390.5 220 513 210.5 515C208.271 511.751 208.93 518.55 206.5 515C157 431.5 130.64 398.547 114 393C114 390.833 116.6 386.9 127 388.5Z" fill="#FF5443"/>
<path d="M220.22 372.557C228.796 381.342 219.24 518.572 211.015 514.764C211.188 511.064 207.834 516.565 208.028 512.526C218.298 421.801 217.255 382.177 207.967 368.678C209.193 367.043 213.359 365.529 220.22 372.557Z" fill="#FF5443"/>
<path d="M201.5 505.5L215.5 503.5L214.809 517.37L205.886 518.543L201.5 505.5Z" fill="#999292"/>
<rect x="179" y="519.122" width="66" height="39" transform="rotate(-7.93359 179 519.122)" fill="#E3F2F7"/>
<mask id="mask0_594_1299" style="mask-type:alpha" maskUnits="userSpaceOnUse" x="471" y="384" width="250" height="394">
<path d="M702.429 419.752C686.984 443.468 657.988 555.755 720.992 590.78C702.129 658.129 702.129 765.862 702.129 765.862C678.413 789.577 486.108 770.715 471 756.156C473.152 696.361 477.203 607.997 475.6 572.466C476.402 543.644 525.429 447.752 516.929 411.752C535.413 403.313 554.092 397.637 575.698 384.218C612.918 384.893 633.934 380.335 651.531 393.881C665.429 399.752 684.429 409.252 702.429 419.752Z" fill="#24243A"/>
</mask>
<g mask="url(#mask0_594_1299)">
<path d="M464.338 639.749L500.896 592.645L528.875 645.299L492.41 691.341L464.338 639.749Z" fill="#98C2AB" fill-opacity="0.56"/>
<path d="M539.543 546.519L576.1 499.415L604.079 552.068L567.614 598.111L539.543 546.519Z" fill="#98C2AB" fill-opacity="0.56"/>
<path d="M522.523 744.45L559.08 697.345L587.059 749.999L550.594 796.041L522.523 744.45Z" fill="#98C2AB" fill-opacity="0.56"/>
<path d="M597.543 651.069L634.1 603.965L662.08 656.619L625.615 702.661L597.543 651.069Z" fill="#98C2AB" fill-opacity="0.56"/>
<path d="M672.747 557.839L709.305 510.735L737.284 563.388L700.819 609.43L672.747 557.839Z" fill="#98C2AB" fill-opacity="0.56"/>
<path d="M655.727 755.769L692.285 708.665L720.264 761.319L683.799 807.361L655.727 755.769Z" fill="#98C2AB" fill-opacity="0.56"/>
<path d="M481.033 444.104L517.59 397L545.57 449.653L509.105 495.695L481.033 444.104Z" fill="#98C2AB" fill-opacity="0.56"/>
<path d="M613.071 453.847L648.65 406L677.708 458.066L642.199 504.849L613.071 453.847Z" fill="#98C2AB" fill-opacity="0.56"/>
<path d="M472.848 540.784L509.406 493.68L537.385 546.333L500.92 592.376L472.848 540.784Z" fill="#393962"/>
<path d="M455.828 738.715L492.386 691.611L520.365 744.264L483.9 790.306L455.828 738.715Z" fill="#393962"/>
<path d="M531.033 645.484L567.59 598.38L595.569 651.034L559.104 697.076L531.033 645.484Z" fill="#393962"/>
<path d="M606.053 552.104L642.611 505L670.59 557.653L634.125 603.695L606.053 552.104Z" fill="#393962"/>
<path d="M589.033 750.035L625.59 702.93L653.57 755.584L617.105 801.626L589.033 750.035Z" fill="#393962"/>
<path d="M664.237 656.804L700.795 609.7L728.774 662.354L692.309 708.396L664.237 656.804Z" fill="#393962"/>
<path d="M548.033 449.104L584.59 402L612.57 454.653L576.105 500.695L548.033 449.104Z" fill="#393962"/>
<path d="M677.033 458.104L713.59 411L741.57 463.653L705.105 509.695L677.033 458.104Z" fill="#393962"/>
<line x1="479.434" y1="504.752" x2="645.434" y2="795.752" stroke="#D9D9D9" stroke-dasharray="2 2"/>
<line x1="434.434" y1="536.752" x2="600.434" y2="827.752" stroke="#D9D9D9" stroke-dasharray="2 2"/>
<line x1="389.434" y1="569.752" x2="555.434" y2="860.752" stroke="#D9D9D9" stroke-dasharray="2 2"/>
<line x1="484.436" y1="392.755" x2="721.436" y2="814.755" stroke="#D9D9D9" stroke-dasharray="2 2"/>
<line x1="528.436" y1="363.755" x2="765.436" y2="785.755" stroke="#D9D9D9" stroke-dasharray="2 2"/>
<line x1="580.436" y1="337.755" x2="817.436" y2="759.755" stroke="#D9D9D9" stroke-dasharray="2 2"/>
<line y1="-0.5" x2="335.018" y2="-0.5" transform="matrix(-0.618934 0.785443 0.785443 0.618934 730.354 529)" stroke="#393962" stroke-dasharray="2 2"/>
<line y1="-0.5" x2="335.018" y2="-0.5" transform="matrix(-0.65416 0.756356 0.756356 0.65416 775.946 575.804)" stroke="#393962" stroke-dasharray="2 2"/>
<line y1="-0.5" x2="335.018" y2="-0.5" transform="matrix(-0.65416 0.756356 0.756356 0.65416 815.156 614)" stroke="#393962" stroke-dasharray="2 2"/>
<path d="M749.413 421.78L443.742 797.037" stroke="#393962" stroke-dasharray="2 2"/>
<line y1="-0.5" x2="483.997" y2="-0.5" transform="matrix(-0.628826 0.777546 0.777546 0.628826 709.252 381.927)" stroke="#393962" stroke-dasharray="2 2"/>
<line y1="-0.5" x2="483.997" y2="-0.5" transform="matrix(-0.62819 0.77806 0.77806 0.62819 665.098 348.803)" stroke="#393962" stroke-dasharray="2 2"/>
</g>
<path d="M583.371 376.116H644.012C652.263 376.116 658.951 382.804 658.951 391.055V410C658.951 418.25 646.75 430 638.5 430L601 426C590.5 424 568.432 428.337 568.432 420.087V391.055C568.432 382.804 575.121 376.116 583.371 376.116Z" fill="#EFCBB0"/>
<path d="M660.386 379.154C661.019 392.278 673.51 401.604 670.809 405.824C665.956 413.378 632.914 448.36 608.86 452.918C600.547 437.557 599.829 426.754 587.633 425.531C612.574 421.015 651.018 398.439 652.959 388.143C654.858 378.142 647.557 365.946 647.557 365.946L660.386 379.197V379.154Z" fill="#B5DEC7"/>
<path d="M594.09 426.079C581.556 425.615 583.582 433.802 563.115 444.098C551.257 423.041 553.325 402.87 554.422 394.008C563.579 389.788 570.922 375.525 577.927 368.056C576.577 384.893 576.113 401.098 594.09 426.121V426.079Z" fill="#B5DEC7"/>
<path d="M749.47 286.697C747.022 349.278 698.661 422.239 543.872 369.66C473.314 345.691 493.317 265.049 503.234 236.692C506.061 228.59 507.665 220.15 508.002 211.584C511.842 105.496 677.097 57.0102 752.002 156.641C773.017 184.577 762.172 222.682 749.47 286.655V286.697Z" fill="#FDE0CB"/>
<path d="M736.177 306.109C755.926 289.229 793.273 299.652 780.698 338.433C768.122 377.213 717.482 357.844 712.798 345.607C708.114 333.369 736.852 305.349 736.852 305.349" fill="#EFCBB0"/>
<path d="M680.957 277.461L692.966 279.819L692.267 283.38L680.258 281.022L680.957 277.461Z" stroke="#231F20" stroke-width="5" stroke-miterlimit="10"/>
<path d="M497.916 225.256C492.895 231.038 489.392 254.331 522.013 269.059C554.633 283.786 567.546 268.89 572.146 255.935" stroke="#231F20" stroke-width="5" stroke-miterlimit="10"/>
<path d="M613.08 295.306C611.603 307.754 562.06 322.608 550.244 284.545C538.428 246.482 614.979 279.65 613.08 295.306Z" fill="#EFCBB0"/>
<path d="M680.178 277.287C681.528 284.841 672.624 306.657 637.092 302.606C601.559 298.555 598.014 279.186 600.715 265.725" stroke="#231F20" stroke-width="5" stroke-miterlimit="10"/>
<path d="M495.861 228.379L484.337 224.262L485.558 220.844L497.082 224.961L495.861 228.379Z" stroke="#231F20" stroke-width="5" stroke-miterlimit="10"/>
<path d="M600.8 267.666C605.484 262.349 572.695 251.504 571.175 257.074C577.716 256.694 591.642 261.041 600.8 267.666Z" stroke="#231F20" stroke-width="5" stroke-miterlimit="10"/>
<path d="M624.727 277.92C618.271 277.92 613.038 271.629 613.038 263.868C613.038 256.107 618.271 249.816 624.727 249.816C631.183 249.816 636.416 256.107 636.416 263.868C636.416 271.629 631.183 277.92 624.727 277.92Z" fill="#28201A"/>
<path d="M552.478 255.728C546.633 254.947 542.73 248.077 543.759 240.385C544.788 232.692 550.36 227.091 556.205 227.872C562.049 228.654 565.953 235.524 564.923 243.216C563.894 250.908 558.322 256.51 552.478 255.728Z" fill="#28201A"/>
<path d="M756.855 158.245C761.666 153.012 769.557 152.464 776.604 152.295C784.369 152.084 793.653 152.675 797.704 159.384C800.996 164.786 799.35 172.17 802.557 177.656C804.836 181.581 809.183 183.733 813.023 186.138C816.188 188.121 819.184 190.4 821.969 192.932C825.43 196.097 828.763 200.823 826.864 205.127C825.598 207.955 822.56 209.389 820.112 211.246C815.766 214.538 812.896 220.15 813.74 225.594C815.47 236.397 829.903 241.714 830.958 252.601C831.127 254.247 830.958 255.977 830.029 257.369C829.396 258.424 828.384 259.184 827.497 259.986C823.193 263.783 820.028 268.721 816.947 273.574C814.88 276.823 812.685 280.494 813.276 284.334C813.74 287.33 815.766 289.778 816.652 292.647C817.918 296.698 816.652 301.298 813.909 304.547C811.166 307.797 807.115 309.653 802.937 310.202C798.844 310.751 794.666 310.118 790.572 310.54C785.044 311.088 779.727 313.536 775.676 317.418C774.283 318.768 772.975 320.33 771.287 321.3C769.599 322.229 767.658 322.524 765.759 322.608C752.424 323.199 739.426 312.945 736.768 299.694C735.248 292.057 736.852 284.123 739.342 276.781C741.832 269.438 745.292 262.391 747.571 254.964C750.736 244.71 751.664 233.611 748.921 223.231C744.786 207.575 732.885 195.084 728.159 179.597C726.766 174.955 726.049 169.807 728.032 165.376C729.551 161.958 732.463 159.426 735.586 157.359C746.642 150.143 761.033 148.539 773.355 153.139" fill="#AAA7A3"/>
</g>
<defs>
<clipPath id="clip0_594_1299">
<rect width="831" height="1494" fill="white" transform="matrix(-1 0 0 1 831 0)"/>
</clipPath>
</defs>
</svg>
